<?xml version="1.0" encoding="UTF-8" standalone="no"?>
<!-- Created with Inkscape (http://www.inkscape.org/) -->

<svg
   xmlns:dc="http://purl.org/dc/elements/1.1/"
   xmlns:cc="http://creativecommons.org/ns#"
   xmlns:rdf="http://www.w3.org/1999/02/22-rdf-syntax-ns#"
   xmlns:svg="http://www.w3.org/2000/svg"
   xmlns="http://www.w3.org/2000/svg"
   version="1.1"
   width="24"
   height="24"
   viewBox="0 0 24 24"
   id="svg2">
  <defs
     id="defs10" />
  <path
     d="M 19,3.3999998 V 1.8000002 H 15 V 9 h 8 V 3.3999998 H 19 z M 16.600001,8.1999997 H 15.8 V 7.4000003 h 0.800001 v 0.7999994 z m 0,-1.5999996 H 15.8 V 5.7999997 h 0.800001 v 0.8000004 z m 0,-1.5999998 H 15.8 V 4.2000001 h 0.800001 v 0.8000002 z m 0,-1.6000005 H 15.8 V 2.6000004 h 0.800001 V 3.3999998 z M 18.2,8.1999997 H 17.4 V 7.4000003 h 0.8 v 0.7999994 z m 0,-1.5999996 H 17.4 V 5.7999997 h 0.8 v 0.8000004 z m 0,-1.5999998 H 17.4 V 4.2000001 h 0.8 v 0.8000002 z m 0,-1.6000005 H 17.4 V 2.6000004 h 0.8 v 0.7999994 z m 4,4.7999999 H 19 V 7.4000003 h 0.8 V 6.6000001 H 19 V 5.7999997 h 0.8 V 5.0000003 H 19 V 4.2000001 h 3.2 V 8.1999997 z M 21.4,5.0000003 h -0.8 v 0.7999994 h 0.8 V 5.0000003 z m 0,1.5999998 h -0.8 v 0.8000002 h 0.8 V 6.6000001 z"
     id="path6"
     style="fill:#3f51b5;fill-opacity:1" />
  <path
     d="m 6.8000002,6.1999999 c 0.5520002,0 0.9959998,-0.448 0.9959998,-1 0,-0.5520001 -0.4439996,-1.0000001 -0.9959998,-1.0000001 -0.552,0 -1,0.448 -1,1.0000001 0,0.552 0.448,1 1,1 z M 3.8000001,5.7999998 c 0.6639999,0 1.196,-0.536 1.196,-1.1999999 0,-0.6640001 -0.5320001,-1.2000001 -1.196,-1.2000001 -0.664,0 -1.2000001,0.536 -1.2000001,1.2000001 0,0.6639999 0.5360001,1.1999999 1.2000001,1.1999999 z m 3.0000001,1.2000001 c -0.732,0 -2.2000001,0.368 -2.2000001,1.1000001 V 9 H 9 V 8.1 C 9,7.3679999 7.5320005,6.9999999 6.8000002,6.9999999 z m -3.0000001,-0.4 c -0.932,0 -2.8000001,0.468 -2.8000001,1.4 V 9 H 3.8000001 V 8.1 c 0,-0.3400001 0.1319999,-0.936 0.948,-1.3880001 -0.3479999,-0.072 -0.6839999,-0.112 -0.948,-0.112 z"
     id="path6-1"
     style="fill:#2196f3;fill-opacity:1" />
  <path
     d="m 12,6 c -1.1,0 -2,0.9 -2,2 0,1.1 0.9,2 2,2 1.1,0 2,-0.9 2,-2 C 14,6.9 13.1,6 12,6 z M 3.5,10 3,12 c 1.3764,0.37 2.8933881,0.655882 4.40625,0.84375 L 7.65625,10.75 C 6.21125,10.5875 4.805,10.35 3.5,10 z m 17,0 c -1.305,0.35 -2.71125,0.5875 -4.15625,0.75 l 0.25,2.09375 C 18.106612,12.655882 19.6236,12.37 21,12 L 20.5,10 z M 9,18 l 0,6 2,0 0,-4 2,0 0,4 2,0 0,-6 -3,0 -3,0 z"
     id="path3797" />
  <path
     d="m 7.65625,10.75 -0.25,2.09375 C 7.9377961,12.909758 8.48,12.9558 9,13 l 0,5 3,0 3,0 0,-5 c 0.52,-0.0442 1.062204,-0.09024 1.59375,-0.15625 L 16.34375,10.75 C 14.89875,10.9125 13.415,11 12,11 10.585,11 9.10125,10.9125 7.65625,10.75 z"
     id="path3804"
     style="fill:#33691e;fill-opacity:1" />
  <metadata
     id="metadata3812">
    <rdf:RDF>
      <cc:Work
         rdf:about="">
        <dc:title></dc:title>
      </cc:Work>
    </rdf:RDF>
  </metadata>
</svg>
