<?xml version="1.0" encoding="UTF-8" standalone="no"?>
<!-- Created with Inkscape (http://www.inkscape.org/) -->

<svg
   xmlns:dc="http://purl.org/dc/elements/1.1/"
   xmlns:cc="http://creativecommons.org/ns#"
   xmlns:rdf="http://www.w3.org/1999/02/22-rdf-syntax-ns#"
   xmlns:svg="http://www.w3.org/2000/svg"
   xmlns="http://www.w3.org/2000/svg"
   version="1.1"
   width="24"
   height="24"
   viewBox="0 0 24 24"
   id="svg2"
   xml:space="preserve"><defs
     id="defs22" /><path
     d="m 20,4 -9,0 0,0"
     id="path3789"
     style="fill:none;stroke:#bdbdbd;stroke-width:1.5;stroke-linecap:butt;stroke-linejoin:miter;stroke-miterlimit:4;stroke-opacity:1;stroke-dasharray:none" /><path
     d="M 8,12 4,20"
     id="path3813"
     style="fill:none;stroke:#bdbdbd;stroke-width:1.5;stroke-linecap:butt;stroke-linejoin:miter;stroke-miterlimit:4;stroke-opacity:1;stroke-dasharray:none" /><path
     d="M 8,12 11,4"
     id="path3815"
     style="fill:none;stroke:#bdbdbd;stroke-width:1.5;stroke-linecap:butt;stroke-linejoin:miter;stroke-miterlimit:4;stroke-opacity:1;stroke-dasharray:none" /><path
     d="M 17,13 8,12"
     id="path3817"
     style="fill:none;stroke:#bdbdbd;stroke-width:1.5;stroke-linecap:butt;stroke-linejoin:miter;stroke-miterlimit:4;stroke-opacity:1;stroke-dasharray:none" /><path
     d="m 7,13 a 2,2 0 1 1 -4,0 2,2 0 1 1 4,0 z"
     transform="translate(15,-9)"
     id="path3779"
     style="color:#000000;fill:#b71c1c;fill-opacity:1;stroke:#000000;stroke-width:1.5;stroke-linecap:butt;stroke-linejoin:miter;stroke-miterlimit:4;stroke-opacity:1;stroke-dasharray:none;stroke-dashoffset:0;marker:none;visibility:visible;display:inline;overflow:visible;enable-background:accumulate" /><path
     d="m 7,13 a 2,2 0 1 1 -4,0 2,2 0 1 1 4,0 z"
     transform="translate(6,-9)"
     id="path3781"
     style="color:#000000;fill:#0d47a1;fill-opacity:1;stroke:#000000;stroke-width:1.5;stroke-linecap:butt;stroke-linejoin:miter;stroke-miterlimit:4;stroke-opacity:1;stroke-dasharray:none;stroke-dashoffset:0;marker:none;visibility:visible;display:inline;overflow:visible;enable-background:accumulate" /><path
     d="m 7,13 a 2,2 0 1 1 -4,0 2,2 0 1 1 4,0 z"
     transform="translate(-1,7)"
     id="path3783"
     style="color:#000000;fill:#4a148f;fill-opacity:0.94117647;stroke:#000000;stroke-width:1.5;stroke-linecap:butt;stroke-linejoin:miter;stroke-miterlimit:4;stroke-opacity:1;stroke-dasharray:none;stroke-dashoffset:0;marker:none;visibility:visible;display:inline;overflow:visible;enable-background:accumulate" /><path
     d="m 7,13 a 2,2 0 1 1 -4,0 2,2 0 1 1 4,0 z"
     transform="translate(3,-1)"
     id="path3785"
     style="color:#000000;fill:#ff6f00;fill-opacity:1;stroke:#000000;stroke-width:1.5;stroke-linecap:butt;stroke-linejoin:miter;stroke-miterlimit:4;stroke-opacity:1;stroke-dasharray:none;stroke-dashoffset:0;marker:none;visibility:visible;display:inline;overflow:visible;enable-background:accumulate" /><path
     d="m 7,13 a 2,2 0 1 1 -4,0 2,2 0 1 1 4,0 z"
     transform="translate(12,0)"
     id="path3787"
     style="color:#000000;fill:#1b5e20;fill-opacity:1;stroke:#000000;stroke-width:1.5;stroke-linecap:butt;stroke-linejoin:miter;stroke-miterlimit:4;stroke-opacity:1;stroke-dasharray:none;stroke-dashoffset:0;marker:none;visibility:visible;display:inline;overflow:visible;enable-background:accumulate" /><metadata
     id="metadata3861"><rdf:RDF><cc:Work
         rdf:about=""><dc:title></dc:title></cc:Work></rdf:RDF></metadata><g
     transform="translate(1.579965,0)"
     id="text3863"
     style="font-size:9px;font-style:normal;font-variant:normal;font-weight:normal;font-stretch:normal;line-height:125%;letter-spacing:0px;word-spacing:0px;fill:#000000;fill-opacity:1;stroke:none;font-family:Roboto;-inkscape-font-specification:Roboto"><path
       d="m 12.499137,21.330078 -2.6806641,0 L 9.2164221,23 l -0.8701172,0 2.4433591,-6.398438 0.738282,0 L 13.975699,23 13.109977,23 z m -2.425781,-0.694336 2.175293,0 -1.089844,-2.992676 z"
       id="path3870" /><path
       d="m 15.680778,20.495117 0,2.504883 -0.84375,0 0,-6.398438 2.359863,0 c 0.700191,7e-6 1.248775,0.178718 1.645752,0.536133 0.396967,0.357428 0.595453,0.830572 0.595459,1.419434 -6e-6,0.621097 -0.194097,1.099368 -0.582276,1.434814 -0.388188,0.335452 -0.944095,0.503177 -1.667724,0.503174 z m 0,-0.689941 1.516113,0 c 0.451168,3e-6 0.796871,-0.106198 1.037109,-0.318604 0.24023,-0.212398 0.360347,-0.519283 0.360352,-0.920654 -5e-6,-0.380855 -0.120122,-0.685542 -0.360352,-0.914063 -0.240238,-0.22851 -0.569828,-0.347162 -0.988769,-0.355957 l -1.564453,0 z"
       id="path3872" /><path
       d="m 21.420035,23 -0.84375,0 0,-6.398438 0.84375,0 z"
       id="path3874" /></g></svg>