<?xml version="1.0" encoding="UTF-8" standalone="no"?>
<!-- Created with Inkscape (http://www.inkscape.org/) -->

<svg
   xmlns:dc="http://purl.org/dc/elements/1.1/"
   xmlns:cc="http://creativecommons.org/ns#"
   xmlns:rdf="http://www.w3.org/1999/02/22-rdf-syntax-ns#"
   xmlns:svg="http://www.w3.org/2000/svg"
   xmlns="http://www.w3.org/2000/svg"
   version="1.1"
   width="24"
   height="24"
   viewBox="0 0 24 24"
   id="svg2"
   xml:space="preserve"><defs
     id="defs22" /><path
     d="m 20,4 -9,0 0,0"
     id="path3789"
     style="fill:none;stroke:#bdbdbd;stroke-width:1.5;stroke-linecap:butt;stroke-linejoin:miter;stroke-miterlimit:4;stroke-opacity:1;stroke-dasharray:none" /><path
     d="M 8,12 4,20"
     id="path3813"
     style="fill:none;stroke:#bdbdbd;stroke-width:1.5;stroke-linecap:butt;stroke-linejoin:miter;stroke-miterlimit:4;stroke-opacity:1;stroke-dasharray:none" /><path
     d="M 8,12 11,4"
     id="path3815"
     style="fill:none;stroke:#bdbdbd;stroke-width:1.5;stroke-linecap:butt;stroke-linejoin:miter;stroke-miterlimit:4;stroke-opacity:1;stroke-dasharray:none" /><path
     d="M 17,13 8,12"
     id="path3817"
     style="fill:none;stroke:#bdbdbd;stroke-width:1.5;stroke-linecap:butt;stroke-linejoin:miter;stroke-miterlimit:4;stroke-opacity:1;stroke-dasharray:none" /><path
     d="m 7,13 a 2,2 0 1 1 -4,0 2,2 0 1 1 4,0 z"
     transform="translate(15,-9)"
     id="path3779"
     style="color:#000000;fill:#b71c1c;fill-opacity:1;stroke:#000000;stroke-width:1.5;stroke-linecap:butt;stroke-linejoin:miter;stroke-miterlimit:4;stroke-opacity:1;stroke-dasharray:none;stroke-dashoffset:0;marker:none;visibility:visible;display:inline;overflow:visible;enable-background:accumulate" /><path
     d="m 7,13 a 2,2 0 1 1 -4,0 2,2 0 1 1 4,0 z"
     transform="translate(6,-9)"
     id="path3781"
     style="color:#000000;fill:#0d47a1;fill-opacity:1;stroke:#000000;stroke-width:1.5;stroke-linecap:butt;stroke-linejoin:miter;stroke-miterlimit:4;stroke-opacity:1;stroke-dasharray:none;stroke-dashoffset:0;marker:none;visibility:visible;display:inline;overflow:visible;enable-background:accumulate" /><path
     d="m 7,13 a 2,2 0 1 1 -4,0 2,2 0 1 1 4,0 z"
     transform="translate(-1,7)"
     id="path3783"
     style="color:#000000;fill:#4a148f;fill-opacity:0.94117647;stroke:#000000;stroke-width:1.5;stroke-linecap:butt;stroke-linejoin:miter;stroke-miterlimit:4;stroke-opacity:1;stroke-dasharray:none;stroke-dashoffset:0;marker:none;visibility:visible;display:inline;overflow:visible;enable-background:accumulate" /><path
     d="m 7,13 a 2,2 0 1 1 -4,0 2,2 0 1 1 4,0 z"
     transform="translate(3,-1)"
     id="path3785"
     style="color:#000000;fill:#ff6f00;fill-opacity:1;stroke:#000000;stroke-width:1.5;stroke-linecap:butt;stroke-linejoin:miter;stroke-miterlimit:4;stroke-opacity:1;stroke-dasharray:none;stroke-dashoffset:0;marker:none;visibility:visible;display:inline;overflow:visible;enable-background:accumulate" /><path
     d="m 7,13 a 2,2 0 1 1 -4,0 2,2 0 1 1 4,0 z"
     transform="translate(12,0)"
     id="path3787"
     style="color:#000000;fill:#1b5e20;fill-opacity:1;stroke:#000000;stroke-width:1.5;stroke-linecap:butt;stroke-linejoin:miter;stroke-miterlimit:4;stroke-opacity:1;stroke-dasharray:none;stroke-dashoffset:0;marker:none;visibility:visible;display:inline;overflow:visible;enable-background:accumulate" /><metadata
     id="metadata3861"><rdf:RDF><cc:Work
         rdf:about=""><dc:title></dc:title></cc:Work></rdf:RDF></metadata></svg>