<?xml version="1.0" encoding="UTF-8" standalone="no"?>
<svg
        xmlns:dc="http://purl.org/dc/elements/1.1/"
        xmlns:cc="http://creativecommons.org/ns#"
        xmlns:rdf="http://www.w3.org/1999/02/22-rdf-syntax-ns#"
        xmlns="http://www.w3.org/2000/svg"
        xml:space="preserve"
        style="enable-background:new 0 0 511.984 511.984;"
        viewBox="0 0 511.984 511.984"
        y="0px"
        x="0px"
        id="Layer_1"
        version="1.1">
    <metadata
            id="metadata81">
        <rdf:RDF>
            <cc:Work
                    rdf:about="">
                <dc:format>image/svg+xml</dc:format>
                <dc:type rdf:resource="http://purl.org/dc/dcmitype/StillImage"/>
                <dc:title></dc:title>
            </cc:Work>
        </rdf:RDF>
    </metadata>
    <polygon
            id="polygon2"
            points="172.046,405.314 53.331,286.601 53.331,118.715 172.046,0 339.924,0 458.638,118.715   458.638,286.601 339.924,405.314 "
            style="fill:#E6E9ED;"/>
    <path
            id="path4"
            d="m 115.988,216.318 c 0,11.781 -9.554,21.326 -21.335,21.326 -11.781,0 -21.327,-9.545 -21.327,-21.326 0,-11.781 9.546,-21.328 21.327,-21.328 11.781,0 21.335,9.547 21.335,21.328 z"
            style="fill:#ed5564"/>
    <path
            id="path6"
            d="m 289.326,334.318 c 0,11.781 -9.555,21.326 -21.336,21.326 -11.78,0 -21.335,-9.545 -21.335,-21.326 0,-11.781 9.555,-21.328 21.335,-21.328 11.781,0 21.336,9.547 21.336,21.328 z"
            style="fill:#ac92eb"/>
    <path
            id="path8"
            d="m 450.655,176.318 c 0,11.781 -9.547,21.326 -21.327,21.326 -11.789,0 -21.335,-9.545 -21.335,-21.326 0,-11.781 9.546,-21.328 21.335,-21.328 11.78,0 21.327,9.547 21.327,21.328 z"
            style="fill:#a0d468"/>
    <path
            id="path10"
            d="m 338.643,56.318 c 0,11.781 -9.531,21.326 -21.312,21.326 -11.797,0 -21.344,-9.545 -21.344,-21.326 0,-11.781 9.547,-21.328 21.344,-21.328 11.781,0 21.312,9.547 21.312,21.328 z"
            style="fill:#ac92eb"/>
    <path
            id="path12"
            d="m 201.329,276.318 c 0,11.781 -9.562,21.326 -21.342,21.326 -11.781,0 -21.344,-9.545 -21.344,-21.326 0,-11.781 9.562,-21.328 21.344,-21.328 11.78,0 21.342,9.547 21.342,21.328 z"
            style="fill:#fc6e51"/>
    <path
            id="path14"
            d="m 203.985,136.318 c 0,11.781 -9.562,21.326 -21.344,21.326 -11.782,0 -21.312,-9.545 -21.312,-21.326 0,-11.781 9.531,-21.328 21.312,-21.328 11.781,0 21.344,9.547 21.344,21.328 z"
            style="fill:#48cfad"/>
    <path
            id="path30"
            d="m 397.332,273.316 c 0,11.781 -9.562,21.328 -21.344,21.328 -11.78,0 -21.335,-9.547 -21.335,-21.328 0,-11.781 9.555,-21.328 21.335,-21.328 11.781,0 21.344,9.547 21.344,21.328 z"
            style="fill:#ffce54"/>
    <g
            id="g24">
	    <polygon
            id="polygon16"
            points="458.638,118.715 450.482,110.544 53.331,275.054 53.331,286.601 61.495,294.771    458.638,130.262  "
            style="fill:#CCD1D9;"/>
        <polygon
                id="polygon18"
                points="339.924,0 328.392,0 247.872,194.385 267.574,202.556 348.095,8.157  "
                style="fill:#CCD1D9;"/>
        <polygon
                id="polygon20"
                points="163.882,8.157 245.966,206.337 265.676,198.181 183.593,0 172.046,0  "
                style="fill:#CCD1D9;"/>
        <polygon
                id="polygon22"
                points="61.495,110.544 53.331,118.715 53.331,130.262 450.482,294.771 458.638,286.601    458.638,275.054  "
                style="fill:#CCD1D9;"/>
    </g>
    <path
            id="path26"
            d="M234.653,373.316c0,11.781-9.547,21.328-21.327,21.328c-11.789,0-21.336-9.547-21.336-21.328  s9.547-21.328,21.336-21.328C225.106,351.988,234.653,361.535,234.653,373.316z"
            style="fill:#48CFAD;"/>
    <path
            id="path28"
            d="m 277.99,381.316 c 0,11.781 -9.554,21.328 -21.335,21.328 -11.78,0 -21.327,-9.547 -21.327,-21.328 0,-11.781 9.547,-21.328 21.327,-21.328 11.781,0 21.335,9.547 21.335,21.328 z"
            style="fill:#fc6e51"/>

    <path
            id="path32"
            d="m 319.987,367.316 c 0,11.781 -9.562,21.328 -21.344,21.328 -11.782,0 -21.312,-9.547 -21.312,-21.328 0,-11.781 9.53,-21.328 21.312,-21.328 11.782,0 21.344,9.547 21.344,21.328 z"
            style="fill:#5d9cec"/>
    <path
            id="path34"
            d="M362.641,373.316c0,11.781-9.531,21.328-21.312,21.328c-11.796,0-21.342-9.547-21.342-21.328  s9.546-21.328,21.342-21.328C353.11,351.988,362.641,361.535,362.641,373.316z"
            style="fill:#ED5564;"/>
    <g id="g42">
        <path
                id="path36"
                d="M127.993,469.312h-4.352l150.284-244.459l-35.882-23.062L72.916,469.312h-8.921   c-11.781,0-21.336,9.547-21.336,21.328s9.555,21.344,21.336,21.344h63.998c11.78,0,21.335-9.562,21.335-21.344   S139.773,469.312,127.993,469.312z"
                style="fill:#434A54;"/>
        <path
                id="path38"
                d="M383.985,469.312h4.343L238.044,224.853l35.882-23.062l165.135,267.521h8.921   c11.781,0,21.343,9.547,21.343,21.328s-9.562,21.344-21.343,21.344h-63.997c-11.781,0-21.344-9.562-21.344-21.344   S372.204,469.312,383.985,469.312z"
                style="fill:#434A54;"/>
        <path
                id="path40"
                d="M287.987,202.65c0,17.687-14.327,31.999-31.999,31.999c-17.671,0-31.999-14.312-31.999-31.999   c0-17.671,14.328-31.999,31.999-31.999C273.66,170.651,287.987,184.979,287.987,202.65z"
                style="fill:#434A54;"/>
    </g>
    <path
            id="path44"
            d="M255.988,245.321c-23.522,0-42.662-19.14-42.662-42.67c0-23.515,19.14-42.655,42.662-42.655  c23.531,0,42.655,19.14,42.655,42.655C298.643,226.181,279.519,245.321,255.988,245.321z M255.988,181.323  c-11.765,0-21.335,9.578-21.335,21.328c0,11.765,9.57,21.343,21.335,21.343c11.766,0,21.344-9.578,21.344-21.343  C277.332,190.901,267.754,181.323,255.988,181.323z"
            style="fill:#656D78;"/>
</svg>
