<?xml version="1.0" encoding="UTF-8" standalone="no"?>
<!-- Created with Inkscape (http://www.inkscape.org/) -->

<svg
   xmlns:dc="http://purl.org/dc/elements/1.1/"
   xmlns:cc="http://creativecommons.org/ns#"
   xmlns:rdf="http://www.w3.org/1999/02/22-rdf-syntax-ns#"
   xmlns:svg="http://www.w3.org/2000/svg"
   xmlns="http://www.w3.org/2000/svg"
   version="1.1"
   width="24"
   height="24"
   viewBox="0 0 24 24"
   id="svg2">
  <defs
     id="defs10" />
  <path
     d="m 4,7 -1,5 1.125,0 c -0.066101,-0.02397 -0.1434331,-0.04582 -0.1875,-0.09375 -0.088135,-0.09587 -0.1250007,-0.201497 -0.125,-0.34375 -7e-7,-0.148437 0.036865,-0.276041 0.125,-0.375 0.088134,-0.09896 0.2299794,-0.156249 0.40625,-0.15625 0.1762682,10e-7 0.3150213,0.05729 0.40625,0.15625 0.091226,0.09896 0.1249983,0.226563 0.125,0.375 -1.7e-6,0.142253 -0.033774,0.247884 -0.125,0.34375 C 4.7043856,11.954183 4.6606242,11.976034 4.59375,12 L 7.625,12 5.8125,7 4,7 z M 6.6875,7 7.96875,10.84375 9.21875,7 6.6875,7 z m 3.40625,0 -1.8125,5 3.65625,0 c -0.245669,-0.07592 -0.463885,-0.196081 -0.625,-0.375 -0.279867,-0.31079 -0.434408,-0.765787 -0.4375,-1.375 l 0,-3.25 -0.78125,0 z m 1.65625,0 0,3.21875 c -10e-7,0.760743 0.319009,1.156251 0.9375,1.15625 0.655596,10e-7 1.064775,-0.261392 1.28125,-0.75 L 13.96875,7 11.75,7 z m 3.09375,0 0,5 2.6875,0 C 17.165471,11.895268 16.829223,11.716787 16.5625,11.4375 16.135742,10.990642 15.9375,10.373374 15.9375,9.625 l 0,-0.15625 c 0,-0.4978811 0.09106,-0.9525519 0.28125,-1.34375 C 16.408935,7.7338096 16.658283,7.4398646 17,7.21875 17.150528,7.121351 17.307119,7.0544947 17.46875,7 l -2.625,0 z m 3.96875,0 c 0.333338,0.1016576 0.589541,0.2663723 0.8125,0.53125 0.361812,0.4298543 0.562495,1.0428094 0.5625,1.84375 l 0,0.375 -3.40625,0 c 0.01237,0.494793 0.160724,0.882895 0.4375,1.1875 0.276772,0.304607 0.63574,0.468751 1.0625,0.46875 0.303057,10e-7 0.53971,-0.0638 0.75,-0.1875 0.210283,-0.123697 0.404781,-0.295897 0.5625,-0.5 L 20.125,11.125 C 19.829012,11.57986 19.410539,11.865256 18.90625,12 L 21,12 20,7 18.8125,7 z M 18.125,7.59375 c -0.346356,4.4e-6 -0.639976,0.1229698 -0.875,0.375 -0.235028,0.2520383 -0.381837,0.6079136 -0.4375,1.0625 l 2.5,0 0,-0.0625 C 19.287757,8.5327183 19.179033,8.1771685 18.96875,7.9375 18.75846,7.6978396 18.483721,7.5937544 18.125,7.59375 z M 14,11.5 c -0.208742,0.245463 -0.481754,0.407951 -0.8125,0.5 L 14.03125,12 14,11.5 z"
     id="path6" />
  <path
     d="m 21,14 0,-2 c -9,0 -9,0 -18,0 l 0,2 1,0 0,6 10,0 0,-6 4,0 0,6 2,0 0,-6 z m -9,4 -6,0 0,-4 6,0 z"
     id="path3057"
     style="fill:#3f51b5;fill-opacity:1" />
  <path
     d="M 4,4 4,6 20,6 20,4 4,4 z"
     id="rect3848"
     style="color:#000000;fill:#3f51b5;fill-opacity:1;fill-rule:nonzero;stroke:none;stroke-width:4;marker:none;visibility:visible;display:inline;overflow:visible;enable-background:accumulate" />
  <metadata
     id="metadata3857">
    <rdf:RDF>
      <cc:Work
         rdf:about="">
        <dc:title></dc:title>
      </cc:Work>
    </rdf:RDF>
  </metadata>
</svg>
